<svg xmlns="http://www.w3.org/2000/svg" x="0px" y="0px" width="100" height="100" viewBox="0,0,256,256">
<g fill-opacity="0" fill="#ffffff" fill-rule="nonzero" stroke="none" stroke-width="1" stroke-linecap="butt" stroke-linejoin="miter" stroke-miterlimit="10" stroke-dasharray="" stroke-dashoffset="0" font-family="none" font-weight="none" font-size="none" text-anchor="none" style="mix-blend-mode: normal"><path d="M0,256v-256h256v256z" id="bgRectangle"></path></g><g fill="#ffffff" fill-rule="nonzero" stroke="none" stroke-width="1" stroke-linecap="butt" stroke-linejoin="miter" stroke-miterlimit="10" stroke-dasharray="" stroke-dashoffset="0" font-family="none" font-weight="none" font-size="none" text-anchor="none" style="mix-blend-mode: normal"><g transform="scale(5.12,5.12)"><path d="M31.17,10c8.189,0 8.83,0.641 8.83,8.83v12.34c0,8.189 -0.641,8.83 -8.83,8.83h-1.567v-10.922h3.85l0.605,-4.327h-4.456c0,0 -0.007,-2.534 0,-3.166c0.013,-1.237 1.045,-1.863 1.933,-1.853c0.888,0.009 2.726,0.003 2.726,0.003v-3.988c0,0 -1.592,-0.206 -3.262,-0.223c-1.403,-0.014 -2.953,0.365 -4.203,1.625c-1.272,1.282 -1.473,3.19 -1.497,5.523c-0.007,0.675 0,2.079 0,2.079h-3.768v4.327h3.769v10.922h-6.47c-8.189,0 -8.83,-0.641 -8.83,-8.83v-12.34c0,-8.189 0.641,-8.83 8.83,-8.83z"></path></g></g>
</svg>